# xmcd CD Database Entry
#
# Track frame offsets:
# 150
# 15428
# 29923
# 48075
# 63332
# 76307
# 91767
# 102919
# 113399
# 137954
# 155904
# 169341
# 184646
# 199491
#
# Disc length: 2831 seconds
#
# Revision: 2
# Processed by: cddbd v1.4b41PL1 Copyright (c) Steve Scherf et al.
# Submitted via: tcd 2.0b
#
DISCID=b70b0d0e
DTITLE=Quasi - R&B Transmogrification
DYEAR=1900
DGENRE=
TTITLE0=Ghost Dreaming
TTITLE1=Ballad of Mechanical Man
TTITLE2=In The First Place
TTITLE3=Bird's Eye View
TTITLE4=Two-Faced
TTITLE5=Ghost vs. Vampire
TTITLE6=R&B Transmogrification
TTITLE7=When I'm Dead
TTITLE8=Sugar
TTITLE9=My Coffin
TTITLE10=Mama, Papa, Baby
TTITLE11=Chocolate Rabbit
TTITLE12=The Iron Worm
TTITLE13=Clouds
EXTD=
EXTT0=
EXTT1=
EXTT2=
EXTT3=
EXTT4=
EXTT5=
EXTT6=
EXTT7=
EXTT8=
EXTT9=
EXTT10=
EXTT11=
EXTT12=
EXTT13=
PLAYORDER=
